<svg width="25" height="25" viewBox="0 0 25 25" fill="none" xmlns="http://www.w3.org/2000/svg">
<path d="M2.09873 12.8693C2.02965 12.662 2.02959 12.4376 2.09855 12.2303C3.48691 8.0566 7.42397 5.04688 12.064 5.04688C16.7019 5.04688 20.6374 8.0538 22.0275 12.2245C22.0966 12.4317 22.0967 12.6561 22.0277 12.8635C20.6393 17.0372 16.7023 20.0469 12.0622 20.0469C7.42438 20.0469 3.48882 17.04 2.09873 12.8693Z" stroke="#CCCCCC" stroke-width="1.5" stroke-linecap="round" stroke-linejoin="round"/>
<path d="M15.0632 12.5469C15.0632 14.2037 13.72 15.5469 12.0632 15.5469C10.4063 15.5469 9.06318 14.2037 9.06318 12.5469C9.06318 10.89 10.4063 9.54688 12.0632 9.54688C13.72 9.54688 15.0632 10.89 15.0632 12.5469Z" stroke="#CCCCCC" stroke-width="1.5" stroke-linecap="round" stroke-linejoin="round"/>
</svg>
